<svg width="118" height="39" viewBox="0 0 118 39" fill="none" xmlns="http://www.w3.org/2000/svg">
<path d="M3.28 30C2.50667 30 1.78667 29.84 1.12 29.52C0.48 29.2 0.16 28.72 0.16 28.08V3.88C0.16 2.73333 0.48 1.93333 1.12 1.48C1.78667 0.999999 2.50667 0.76 3.28 0.76C4.02667 0.76 4.65333 0.826666 5.16 0.96C5.69333 1.06666 6.18667 1.34666 6.64 1.8C7.09333 2.22667 7.58667 2.92 8.12 3.88L12.24 11.08L16.36 3.88C16.92 2.92 17.4133 2.22667 17.84 1.8C18.2933 1.34666 18.7733 1.06666 19.28 0.96C19.8133 0.826666 20.4533 0.76 21.2 0.76C22 0.76 22.72 0.999999 23.36 1.48C24 1.93333 24.32 2.73333 24.32 3.88V28.08C24.32 28.72 23.9867 29.2 23.32 29.52C22.68 29.84 21.9733 30 21.2 30C20.4267 30 19.7067 29.84 19.04 29.52C18.4 29.2 18.08 28.72 18.08 28.08V13.08L14.24 19.64C13.9733 20.0667 13.6533 20.3733 13.28 20.56C12.9067 20.72 12.5333 20.8 12.16 20.8C11.8133 20.8 11.4533 20.72 11.08 20.56C10.7333 20.4 10.44 20.0933 10.2 19.64L6.4 12.68V28.08C6.4 28.72 6.06667 29.2 5.4 29.52C4.76 29.84 4.05333 30 3.28 30ZM29.3566 38.68C28.5566 38.68 27.8766 38.5333 27.3166 38.24C26.7832 37.9467 26.5166 37.2133 26.5166 36.04C26.5166 35.3467 26.6232 34.7467 26.8366 34.24C27.0766 33.7333 27.4766 33.48 28.0366 33.48C28.4099 33.48 28.9032 33.44 29.5166 33.36C30.1299 33.3067 30.7566 33.12 31.3966 32.8C32.0632 32.5067 32.6099 32 33.0366 31.28C33.4899 30.5867 33.7166 29.6133 33.7166 28.36L26.7166 14.44C26.5832 14.1733 26.5166 13.9067 26.5166 13.64C26.5166 13.1067 26.7566 12.6133 27.2366 12.16C27.7166 11.7067 28.2766 11.3467 28.9166 11.08C29.5832 10.8133 30.1832 10.68 30.7166 10.68C31.0899 10.68 31.4366 10.76 31.7566 10.92C32.0766 11.0533 32.3032 11.3067 32.4366 11.68L36.9566 22.52L40.2766 11.68C40.4099 11.3067 40.6232 11.0533 40.9166 10.92C41.2366 10.76 41.5566 10.68 41.8766 10.68C42.3566 10.68 42.9299 10.8267 43.5966 11.12C44.2899 11.3867 44.8899 11.7467 45.3966 12.2C45.9032 12.6533 46.1566 13.1733 46.1566 13.76C46.1566 14.0267 46.1032 14.2533 45.9966 14.44L40.3166 28.6C39.8099 29.8533 39.3299 31.08 38.8766 32.28C38.4232 33.48 37.8366 34.56 37.1166 35.52C36.4232 36.48 35.4632 37.24 34.2366 37.8C33.0099 38.3867 31.3832 38.68 29.3566 38.68ZM53.6056 30C52.8323 30 52.1123 29.84 51.4456 29.52C50.8056 29.2 50.4856 28.72 50.4856 28.08V6.36H44.9656C44.379 6.36 43.9123 6.08 43.5656 5.52C43.2456 4.93333 43.0856 4.26667 43.0856 3.52C43.0856 2.85333 43.2323 2.22667 43.5256 1.64C43.819 1.05333 44.299 0.76 44.9656 0.76H62.2456C62.9123 0.76 63.3923 1.05333 63.6856 1.64C63.979 2.22667 64.1256 2.85333 64.1256 3.52C64.1256 4.26667 63.9656 4.93333 63.6456 5.52C63.3256 6.08 62.859 6.36 62.2456 6.36H56.7256V28.08C56.7256 28.72 56.3923 29.2 55.7256 29.52C55.0856 29.84 54.379 30 53.6056 30ZM66.6916 30.4C65.3049 30.4 64.1049 29.9733 63.0916 29.12C62.0782 28.24 61.5716 26.8933 61.5716 25.08C61.5716 23.5067 61.9716 22.28 62.7716 21.4C63.5716 20.52 64.6649 19.9067 66.0516 19.56C67.4649 19.2133 69.0916 19.04 70.9316 19.04H72.3716V18.64C72.3716 18.1867 72.2782 17.7333 72.0916 17.28C71.9049 16.8267 71.5982 16.4533 71.1716 16.16C70.7449 15.84 70.1449 15.68 69.3716 15.68C68.2782 15.68 67.4649 15.7867 66.9316 16C66.3982 16.2133 65.9849 16.44 65.6916 16.68C65.3982 16.8933 65.0649 17 64.6916 17C64.0249 17 63.5049 16.6667 63.1316 16C62.7849 15.3333 62.6116 14.64 62.6116 13.92C62.6116 13.28 62.9716 12.72 63.6916 12.24C64.4382 11.76 65.3316 11.3867 66.3716 11.12C67.4382 10.8533 68.4649 10.72 69.4516 10.72C71.6382 10.72 73.3982 11.0933 74.7316 11.84C76.0649 12.5867 77.0382 13.56 77.6516 14.76C78.2649 15.9333 78.5716 17.2 78.5716 18.56V28.08C78.5716 28.6133 78.2782 29.0667 77.6916 29.44C77.1316 29.8133 76.4116 30 75.5316 30C74.7582 30 74.1049 29.8133 73.5716 29.44C73.0382 29.0667 72.7716 28.6133 72.7716 28.08V27.2C72.0516 28.0267 71.2116 28.7733 70.2516 29.44C69.2916 30.08 68.1049 30.4 66.6916 30.4ZM69.3716 25.88C69.7982 25.88 70.2382 25.72 70.6916 25.4C71.1449 25.0533 71.5316 24.6 71.8516 24.04C72.1982 23.48 72.3716 22.8667 72.3716 22.2V22.04H72.2116C71.4649 22.04 70.7449 22.0933 70.0516 22.2C69.3849 22.28 68.8382 22.48 68.4116 22.8C68.0116 23.0933 67.8116 23.56 67.8116 24.2C67.8116 24.7867 67.9582 25.2133 68.2516 25.48C68.5449 25.7467 68.9182 25.88 69.3716 25.88ZM88.6666 30.4C87.2799 30.4 85.9999 30.2267 84.8266 29.88C83.6799 29.5333 82.7599 29.08 82.0666 28.52C81.3999 27.96 81.0666 27.36 81.0666 26.72C81.0666 26.4 81.1466 26.0267 81.3066 25.6C81.4932 25.1733 81.7332 24.8 82.0266 24.48C82.3466 24.16 82.7066 24 83.1066 24C83.5332 24 83.9599 24.16 84.3866 24.48C84.8132 24.7733 85.3332 25.0667 85.9466 25.36C86.5866 25.6533 87.4399 25.8 88.5066 25.8C89.5732 25.8 90.2532 25.6533 90.5466 25.36C90.8399 25.04 90.9866 24.7467 90.9866 24.48C90.9866 24.0267 90.7599 23.68 90.3066 23.44C89.8532 23.1733 89.2666 22.96 88.5466 22.8C87.8532 22.6133 87.1066 22.4133 86.3066 22.2C85.5066 21.96 84.7466 21.64 84.0266 21.24C83.3332 20.84 82.7599 20.2933 82.3066 19.6C81.8532 18.9067 81.6266 18 81.6266 16.88C81.6266 15.8933 81.8532 14.9333 82.3066 14C82.7866 13.04 83.5732 12.2533 84.6666 11.64C85.7599 11.0267 87.2532 10.72 89.1466 10.72C90.3199 10.72 91.4132 10.84 92.4266 11.08C93.4666 11.32 94.3066 11.6667 94.9466 12.12C95.6132 12.5467 95.9466 13.04 95.9466 13.6C95.9466 13.8667 95.8532 14.24 95.6666 14.72C95.5066 15.1733 95.2532 15.5867 94.9066 15.96C94.5866 16.3333 94.1866 16.52 93.7066 16.52C93.3599 16.52 92.9732 16.4267 92.5466 16.24C92.1199 16.0267 91.6399 15.8267 91.1066 15.64C90.5732 15.4267 89.9466 15.32 89.2266 15.32C88.6932 15.32 88.2532 15.3867 87.9066 15.52C87.5866 15.6533 87.3466 15.8133 87.1866 16C87.0266 16.1867 86.9466 16.3867 86.9466 16.6C86.9466 16.9733 87.1732 17.2667 87.6266 17.48C88.0799 17.6667 88.6666 17.8533 89.3866 18.04C90.1066 18.2 90.8666 18.4 91.6666 18.64C92.4666 18.8533 93.2266 19.1867 93.9466 19.64C94.6666 20.0667 95.2532 20.6533 95.7066 21.4C96.1599 22.12 96.3866 23.0667 96.3866 24.24C96.3866 26.1067 95.7199 27.6 94.3866 28.72C93.0799 29.84 91.1732 30.4 88.6666 30.4ZM102.255 30C101.375 30 100.642 29.8 100.055 29.4C99.495 29 99.215 28.56 99.215 28.08V1.96C99.215 1.4 99.495 0.946665 100.055 0.599999C100.642 0.253332 101.375 0.079999 102.255 0.079999C103.135 0.079999 103.882 0.253332 104.495 0.599999C105.108 0.946665 105.415 1.4 105.415 1.96V17.64L112.055 11.2C112.375 10.88 112.775 10.72 113.255 10.72C113.708 10.72 114.162 10.88 114.615 11.2C115.095 11.4933 115.482 11.8667 115.775 12.32C116.095 12.7733 116.255 13.2267 116.255 13.68C116.255 13.8667 116.215 14.0533 116.135 14.24C116.055 14.4267 115.935 14.6 115.775 14.76L111.535 18.68L117.015 26.36C117.228 26.7067 117.335 27.0267 117.335 27.32C117.335 27.8 117.135 28.28 116.735 28.76C116.362 29.24 115.895 29.64 115.335 29.96C114.802 30.2533 114.282 30.4 113.775 30.4C113.135 30.4 112.642 30.1467 112.295 29.64L107.455 22.48L105.415 24.36V28.08C105.415 28.56 105.108 29 104.495 29.4C103.882 29.8 103.135 30 102.255 30Z" fill="white"/>
</svg>
